<?xml version="1.0" standalone="no"?>
<!DOCTYPE svg PUBLIC "-//W3C//DTD SVG 20010904//EN"
 "http://www.w3.org/TR/2001/REC-SVG-20010904/DTD/svg10.dtd">
<svg version="1.0" xmlns="http://www.w3.org/2000/svg"
 width="700.000000pt" height="700.000000pt" viewBox="0 0 700.000000 700.000000"
 preserveAspectRatio="xMidYMid meet">
<metadata>
Created by potrace 1.11, written by Peter Selinger 2001-2013
</metadata>
<g transform="translate(0.000000,700.000000) scale(0.100000,-0.100000)"
fill="#000000" stroke="none">
<path d="M6991 5994 c0 -11 3 -14 6 -6 3 7 2 16 -1 19 -3 4 -6 -2 -5 -13z"/>
<path d="M6986 4514 c1 -800 5 -1458 8 -1461 4 -4 6 651 6 1455 0 804 -4 1462
-8 1462 -5 0 -7 -655 -6 -1456z"/>
<path d="M3760 5542 c0 -5 -16 -14 -36 -20 -28 -8 -33 -8 -25 2 18 21 -80 -8
-128 -38 -22 -14 -49 -26 -60 -26 -10 0 -21 -7 -25 -15 -3 -8 -12 -15 -21 -15
-8 0 -15 -5 -15 -11 0 -5 -4 -8 -9 -5 -4 3 -33 -12 -62 -34 -30 -21 -67 -47
-84 -56 -34 -19 -41 -26 -101 -96 -25 -29 -57 -77 -70 -105 -14 -29 -30 -55
-35 -58 -10 -7 -53 -86 -51 -95 1 -3 -3 -21 -8 -40 -26 -98 -44 -227 -46 -330
-2 -63 -3 -117 -3 -119 -1 -2 -7 2 -15 8 -25 21 -49 -15 -42 -66 6 -52 15 -70
26 -53 18 28 54 -31 51 -83 -1 -26 0 -27 20 -16 16 8 20 8 14 -1 -15 -24 -15
-188 0 -223 17 -41 8 -53 -44 -63 -18 -4 -28 -10 -21 -14 15 -9 41 -6 67 8 19
10 24 9 32 -7 19 -34 29 -134 30 -291 l2 -156 -54 -46 c-63 -54 -138 -150
-174 -223 -14 -27 -26 -51 -27 -52 -6 -7 -496 -174 -611 -209 -33 -9 -90 -32
-127 -51 -37 -18 -73 -33 -80 -33 -39 0 -98 -44 -136 -103 -23 -34 -63 -85
-89 -114 -26 -28 -87 -93 -135 -145 -99 -107 -127 -143 -262 -328 -117 -160
-253 -336 -313 -404 -24 -26 -43 -54 -43 -61 0 -7 -16 -43 -35 -80 -20 -37
-40 -88 -46 -113 -5 -26 -26 -70 -45 -100 -20 -29 -61 -105 -91 -169 -54 -111
-56 -120 -61 -213 l-5 -98 97 3 c53 1 98 4 101 7 3 3 1 17 -5 32 -8 21 -6 36
6 62 9 19 20 34 25 34 5 0 6 7 3 15 -5 12 -1 14 17 11 13 -3 28 -5 33 -5 6 -1
5 -6 -2 -13 -19 -19 -14 -30 8 -18 22 12 27 46 8 52 -7 3 -2 7 11 11 17 4 21
2 17 -8 -3 -8 1 -21 9 -29 13 -13 13 -15 -4 -21 -11 -3 -24 -12 -31 -20 -9
-11 -7 -12 12 -8 13 3 20 2 16 -2 -4 -4 2 -19 13 -34 l21 -26 -20 -3 c-26 -4
-51 -31 -31 -33 8 -1 118 -3 245 -4 191 -1 247 2 320 17 49 10 104 20 123 23
68 9 103 29 181 103 60 57 83 68 156 76 l61 6 3 -87 c1 -49 3 -99 3 -113 l2
-25 1442 -1 1442 0 -5 79 -6 79 30 -16 c17 -9 36 -16 42 -16 6 0 28 -8 48 -18
51 -24 107 -21 199 12 72 25 111 -18 85 -93 l-10 -27 360 0 c339 1 360 2 370
19 5 11 12 78 15 150 5 119 3 137 -17 187 -36 92 -61 140 -137 261 -40 64 -73
122 -73 128 0 7 -11 34 -25 61 -14 27 -25 56 -25 64 0 8 -19 38 -43 68 -78 96
-126 175 -181 297 -84 189 -141 266 -341 465 -75 74 -107 113 -120 148 -22 59
-53 89 -101 95 -20 3 -51 13 -68 22 -17 10 -56 26 -86 36 -30 10 -93 36 -140
58 -47 21 -166 67 -266 102 -207 71 -250 97 -316 194 -23 36 -58 81 -76 100
-50 54 -65 78 -56 93 5 7 9 18 9 23 1 6 5 33 10 60 5 28 9 52 10 55 3 15 59
178 67 193 8 16 11 17 21 4 12 -16 27 -20 64 -18 27 1 56 50 42 72 -7 12 -9
12 -10 -1 -1 -8 -1 -20 0 -26 1 -7 -5 -14 -14 -18 -8 -3 -15 -1 -15 4 0 6 5
10 10 10 7 0 7 6 0 19 -13 26 -13 31 4 31 8 0 23 16 35 35 l20 35 -20 0 c-11
0 -18 -4 -15 -9 3 -4 -3 -16 -13 -25 -11 -10 -22 -13 -25 -8 -9 15 4 41 26 53
16 9 17 13 7 26 -12 13 -15 12 -32 -8 l-18 -23 7 30 c4 16 8 42 8 58 0 26 1
27 13 10 12 -17 14 -17 28 2 17 22 18 34 6 53 -10 16 7 51 25 51 7 0 14 -9 17
-21 9 -33 32 -4 34 43 2 21 7 47 13 58 13 25 3 50 -21 50 -21 0 -24 17 -9 70
15 57 20 90 28 195 13 182 6 268 -34 400 -14 44 -31 105 -38 137 -14 58 -36
94 -81 130 -30 24 -28 40 6 49 23 7 22 7 -6 8 -37 2 -76 28 -58 39 8 5 -12 13
-47 21 -56 13 -73 31 -29 31 13 0 18 -4 13 -12 -5 -7 -3 -8 6 -3 10 6 8 13
-11 27 -13 11 -33 26 -43 35 -11 9 -35 18 -55 20 -20 3 -53 8 -75 13 -22 5
-49 5 -62 -1 -22 -8 -28 -5 -26 13 1 3 -15 6 -34 5 -19 -1 -39 5 -43 12 -7 11
-10 11 -14 0 -4 -10 -6 -10 -6 -1 -1 13 -21 17 -21 4z m305 -93 c11 -17 -1
-21 -15 -4 -8 9 -8 15 -2 15 6 0 14 -5 17 -11z m-550 -349 c0 -1 25 -3 55 -4
83 -5 189 -26 204 -41 7 -7 26 -15 43 -18 17 -3 40 -10 51 -16 32 -17 99 -24
130 -14 39 14 90 -2 104 -32 6 -14 15 -25 19 -25 5 0 16 -15 26 -32 17 -33 19
-39 22 -59 0 -5 6 -7 12 -4 10 7 4 -101 -8 -135 -3 -8 -5 -34 -5 -57 0 -48 0
-48 -31 -28 -17 11 -32 12 -62 5 -22 -5 -84 -12 -139 -16 -94 -7 -100 -9 -131
-39 -27 -28 -38 -53 -46 -103 0 -4 -4 -11 -9 -17 -14 -18 -16 -98 -2 -102 7
-3 10 1 6 10 -3 8 -1 18 4 21 13 8 43 -4 37 -14 -2 -4 8 -12 23 -19 25 -11 26
-10 8 4 -11 8 -16 15 -11 15 5 0 4 5 -3 12 -22 22 -13 52 24 76 33 22 35 22
24 3 -5 -11 -18 -25 -28 -31 -16 -9 -16 -11 2 -25 26 -20 45 -19 20 1 -17 14
-18 15 -1 10 11 -4 29 2 44 14 15 11 28 19 29 17 4 -4 12 -44 13 -64 1 -7 4
-12 9 -11 15 4 52 -14 47 -23 -4 -5 10 -9 29 -9 20 0 36 -4 36 -10 0 -17 -33
-28 -62 -20 -15 5 -28 6 -28 4 0 -3 -6 -2 -12 3 -7 4 -17 8 -23 9 -5 1 -18 5
-27 9 -29 12 -20 -11 10 -25 28 -13 124 -50 131 -50 2 0 -2 7 -9 15 -11 13 -8
14 17 9 25 -5 34 -1 51 24 18 24 27 29 58 27 43 -3 45 -7 47 -110 1 -38 5 -75
10 -82 9 -13 -5 -55 -18 -54 -6 0 -9 -6 -7 -13 1 -7 -5 -19 -13 -26 -8 -7 -15
-19 -15 -27 0 -8 -13 -21 -28 -30 -29 -16 -40 -36 -61 -104 -18 -58 -48 -109
-138 -239 -66 -95 -173 -190 -215 -190 -7 0 -19 -5 -26 -12 -7 -7 -12 -8 -12
-2 0 5 -27 10 -59 11 -33 1 -68 6 -78 11 -16 8 -94 24 -133 26 -31 2 -82 43
-115 91 -29 45 -50 103 -107 310 -6 22 -12 58 -13 80 -1 21 -7 41 -14 43 -6 2
-11 12 -11 22 0 21 -63 90 -82 90 -6 0 -8 3 -5 6 3 4 2 15 -4 26 -5 10 -12 40
-15 66 -2 26 -8 48 -13 50 -16 5 11 95 38 126 9 10 15 20 14 22 -8 13 -2 74 7
69 6 -4 9 -14 8 -23 -5 -27 25 -20 32 8 l6 24 23 -33 c13 -18 29 -30 37 -27 7
3 26 -11 43 -30 23 -25 39 -34 63 -35 28 0 30 -2 13 -10 -14 -6 -6 -7 25 -3
25 4 56 12 70 20 23 13 19 13 -43 11 -61 -2 -71 0 -84 20 -14 21 -14 22 8 18
13 -3 27 1 31 8 6 9 8 9 8 -1 0 -8 5 -10 12 -6 7 4 26 7 43 6 20 -2 32 2 33
10 3 34 7 58 10 58 5 0 52 -49 52 -55 0 -3 -12 -5 -27 -6 l-28 0 25 -10 c16
-7 26 -7 28 0 2 5 9 8 17 5 22 -9 28 15 10 42 -22 34 -9 46 15 14 26 -33 25
-50 -5 -90 -26 -35 -33 -52 -14 -33 8 8 18 8 35 1 28 -13 25 -42 -8 -70 -11
-10 -16 -23 -12 -29 4 -8 3 -9 -4 -5 -7 4 -12 2 -12 -3 0 -17 30 -13 57 9 14
11 20 20 14 20 -7 0 -9 5 -6 10 4 6 11 8 16 5 5 -4 9 -2 9 3 0 6 -8 13 -17 16
-12 5 -14 9 -5 18 7 7 12 20 12 30 0 10 4 18 9 18 7 0 9 19 12 142 0 47 -17
82 -38 74 -10 -4 -21 2 -30 13 -14 21 -54 35 -128 47 -22 3 -43 8 -47 10 -22
14 -100 13 -122 -1 -21 -14 -61 -11 -54 4 26 56 40 105 31 108 -13 5 0 81 21
122 8 15 13 31 9 34 -3 4 7 12 23 19 16 7 34 18 39 24 26 28 103 82 130 91 23
7 70 10 70 3z m-120 -530 c-3 -5 -15 -10 -26 -10 -11 0 -17 5 -14 10 3 6 15
10 26 10 11 0 17 -4 14 -10z m-226 -41 c-7 -4 -21 -3 -31 2 -25 14 -23 16 13
11 21 -3 27 -7 18 -13z m851 -41 c0 -13 -43 -6 -47 8 -2 7 6 10 22 7 14 -3 25
-10 25 -15z m-505 -18 c3 -5 1 -10 -4 -10 -6 0 -11 5 -11 10 0 6 2 10 4 10 3
0 8 -4 11 -10z m-506 -72 c11 -27 17 -48 13 -48 -9 0 -52 85 -52 102 0 20 18
-4 39 -54z m1352 -124 c-14 -18 -21 -22 -21 -11 0 17 29 51 37 43 3 -3 -4 -17
-16 -32z m-124 -366 c-3 -8 -6 -5 -6 6 -1 11 2 17 5 13 3 -3 4 -12 1 -19z
m-1074 -351 c-2 -4 7 -19 21 -35 46 -49 148 -212 145 -229 -3 -12 12 -46 28
-64 7 -9 16 -27 18 -40 3 -13 13 -30 22 -37 15 -10 20 -10 29 3 10 13 18 12
75 -7 35 -11 72 -25 81 -30 26 -12 49 -10 111 11 31 10 54 14 51 10 -3 -5 1
-9 8 -9 8 0 6 -5 -5 -11 -9 -6 -15 -14 -12 -20 10 -16 51 20 70 61 10 22 21
40 25 40 16 0 33 77 19 85 -12 8 79 102 117 120 19 9 34 21 34 27 0 5 7 7 16
4 8 -3 12 -2 9 4 -3 6 -1 10 4 10 14 0 14 -16 0 -42 -8 -14 -8 -23 0 -31 7 -7
7 -16 -1 -30 -5 -11 -11 -45 -13 -76 -4 -85 -16 -155 -27 -162 -6 -4 -7 -12
-3 -19 4 -6 -5 -33 -19 -60 -19 -35 -23 -49 -14 -52 10 -4 10 -9 -2 -22 -12
-16 -11 -20 10 -37 17 -12 20 -19 10 -19 -11 0 -12 -2 -2 -8 12 -8 8 -74 -6
-97 -4 -5 -8 -17 -9 -26 -4 -27 -84 -162 -116 -196 -17 -18 -34 -30 -39 -27
-5 3 -7 2 -6 -3 1 -4 -36 -46 -83 -93 -47 -47 -101 -105 -120 -129 l-36 -44
-59 99 c-59 99 -115 163 -189 214 -22 16 -48 36 -57 47 -10 10 -27 27 -39 38
-19 18 -36 49 -43 80 -2 6 -8 22 -14 36 -15 37 -16 51 -7 72 6 15 10 16 17 5
8 -10 9 -9 5 4 -3 9 1 22 10 29 15 13 14 57 -2 104 -6 16 -5 17 4 5 9 -12 11
-11 11 8 0 12 -3 22 -8 22 -4 0 -8 17 -9 38 -1 48 -11 119 -31 215 -5 26 -7
47 -3 47 3 0 1 4 -6 8 -6 4 -13 35 -16 69 -4 53 -2 61 12 55 14 -5 14 -4 2 12
-19 23 -21 74 -3 81 9 3 12 12 7 22 -5 15 -3 14 13 -2 11 -11 17 -23 15 -28z
m614 -263 c10 -14 8 -20 -12 -36 -13 -10 -22 -25 -19 -32 3 -8 -18 -27 -53
-48 -76 -47 -95 -52 -136 -35 -36 15 -153 100 -174 126 -18 21 -16 32 4 24 10
-4 14 -2 10 4 -12 18 11 20 193 17 150 -3 176 -6 187 -20z m13 -58 c0 -2 -7
-7 -16 -10 -8 -3 -12 -2 -9 4 6 10 25 14 25 6z m-405 -806 c-3 -5 2 -13 11
-18 20 -11 13 -36 -14 -51 -14 -7 -25 -6 -40 5 -25 17 -30 61 -7 61 10 0 13
-6 10 -17 -6 -17 17 -35 29 -23 10 10 7 35 -4 28 -5 -3 -10 -1 -10 4 0 6 5 11
11 11 5 0 7 5 3 12 -4 7 -3 8 5 4 6 -4 9 -11 6 -16z m91 -392 c-3 -13 -5 -30
-6 -38 0 -12 -3 -12 -14 3 -16 21 -10 57 10 57 9 0 12 -8 10 -22z m-2461 -845
c-2 -10 -4 -19 -4 -21 -1 -2 -6 0 -11 3 -8 5 -7 11 1 21 15 18 18 18 14 -3z
m45 2 c7 -8 9 -15 6 -15 -4 0 -14 7 -22 15 -9 8 -11 15 -6 15 5 0 15 -7 22
-15z"/>
<path d="M3702 4429 c2 -7 10 -15 17 -17 8 -3 12 1 9 9 -2 7 -10 15 -17 17 -8
3 -12 -1 -9 -9z"/>
<path d="M3706 4342 c3 -13 1 -29 -5 -36 -8 -10 -3 -20 19 -42 16 -16 30 -34
30 -40 0 -6 -21 -24 -46 -40 -60 -38 -108 -36 -145 6 -23 27 -31 30 -73 27
-26 -3 -49 -7 -53 -10 -10 -10 7 -57 20 -57 20 0 58 -40 51 -52 -4 -7 -2 -8 4
-4 7 4 17 4 24 0 7 -4 26 -9 43 -11 16 -2 39 -5 50 -7 11 -2 31 1 44 6 13 5
44 10 69 13 102 9 129 28 116 79 -5 21 -8 23 -19 12 -17 -16 -64 -9 -72 11 -3
8 1 22 10 30 15 15 14 19 -3 43 -10 14 -22 39 -26 54 -4 17 -11 25 -20 22 -7
-3 -15 0 -18 7 -3 7 -3 2 0 -11z"/>
<path d="M3796 4325 c-3 -8 -1 -15 3 -15 5 0 11 7 15 15 3 8 1 15 -3 15 -5 0
-11 -7 -15 -15z"/>
<path d="M3462 4095 c-7 -8 -22 -15 -32 -15 -11 0 -34 -9 -52 -20 -22 -13 -36
-16 -44 -9 -8 7 -18 2 -33 -17 -12 -15 -21 -31 -21 -35 0 -14 27 -10 44 6 10
10 24 13 40 9 16 -4 31 -1 40 7 34 33 57 49 71 49 8 0 15 9 15 20 0 23 -10 25
-28 5z"/>
<path d="M3783 4052 c-8 -5 -8 -12 3 -26 12 -18 14 -18 20 -2 8 21 -6 38 -23
28z"/>
<path d="M3815 4021 c-7 -12 29 -47 68 -67 26 -14 37 -34 18 -34 -5 0 -28 9
-52 19 -24 11 -57 21 -74 22 -16 2 -35 7 -40 11 -6 4 -16 3 -24 -1 -16 -10
-103 5 -112 20 -4 8 -9 8 -13 1 -4 -7 -17 -6 -39 3 -27 11 -35 11 -51 -1 -11
-8 -24 -10 -30 -5 -14 10 -94 0 -120 -15 -19 -11 -19 -12 2 -42 12 -16 24 -47
28 -68 9 -61 43 -104 109 -141 23 -13 58 -17 150 -17 109 -1 123 1 158 23 25
15 40 33 44 52 5 29 99 132 112 124 4 -2 13 0 20 5 22 13 5 38 -36 58 -21 9
-43 24 -50 32 -7 8 -13 11 -13 7 0 -5 -7 -1 -16 7 -18 18 -30 20 -39 7z m-125
-109 c8 -3 21 -4 28 -3 8 1 20 -3 27 -9 7 -6 21 -10 31 -8 25 5 28 -18 5 -41
-19 -19 -31 -21 -114 -17 -70 2 -104 9 -142 26 -28 13 -57 23 -65 24 -8 1 -15
10 -15 21 0 15 8 21 35 25 35 5 182 -7 210 -18z m-109 -107 c5 4 18 3 27 -1 9
-4 28 -9 42 -11 48 -7 54 -11 39 -29 -25 -30 -189 -2 -189 32 0 16 30 23 53
12 9 -5 22 -6 28 -3z"/>
<path d="M2966 4162 c-4 -7 -2 -12 4 -12 6 0 15 -10 20 -22 5 -14 9 -17 9 -7
1 23 -24 55 -33 41z"/>
<path d="M4381 4144 c0 -11 3 -14 6 -6 3 7 2 16 -1 19 -3 4 -6 -2 -5 -13z"/>
<path d="M4365 4049 c-4 -6 -5 -12 -2 -15 2 -3 7 2 10 11 7 17 1 20 -8 4z"/>
<path d="M6993 3005 c0 -22 2 -30 4 -17 2 12 2 30 0 40 -3 9 -5 -1 -4 -23z"/>
<path d="M6991 2924 c0 -11 3 -14 6 -6 3 7 2 16 -1 19 -3 4 -6 -2 -5 -13z"/>
<path d="M6991 2884 c0 -11 3 -14 6 -6 3 7 2 16 -1 19 -3 4 -6 -2 -5 -13z"/>
<path d="M6985 1290 c3 -5 8 -10 11 -10 2 0 4 5 4 10 0 6 -5 10 -11 10 -5 0
-7 -4 -4 -10z"/>
<path d="M6986 1190 c1 -48 -2 -60 -15 -60 -11 0 -12 -3 -4 -8 6 -4 10 -19 10
-34 -2 -20 -5 -24 -14 -16 -9 7 -13 7 -13 -2 0 -7 8 -19 18 -27 9 -8 11 -12 4
-8 -10 5 -11 0 -6 -21 6 -21 4 -25 -7 -19 -8 5 -11 4 -6 0 4 -5 16 -10 27 -12
19 -3 20 3 20 132 0 74 -3 135 -7 135 -5 0 -8 -27 -7 -60z"/>
<path d="M6955 1100 c3 -5 8 -10 11 -10 2 0 4 5 4 10 0 6 -5 10 -11 10 -5 0
-7 -4 -4 -10z"/>
</g>
</svg>
